<?xml version="1.0" encoding="UTF-8" standalone="no"?>
<svg
   xmlns:dc="http://purl.org/dc/elements/1.1/"
   xmlns:cc="http://creativecommons.org/ns#"
   xmlns:rdf="http://www.w3.org/1999/02/22-rdf-syntax-ns#"
   xmlns:svg="http://www.w3.org/2000/svg"
   xmlns="http://www.w3.org/2000/svg"
   xmlns:sodipodi="http://sodipodi.sourceforge.net/DTD/sodipodi-0.dtd"
   xmlns:inkscape="http://www.inkscape.org/namespaces/inkscape"
   sodipodi:docname="drawing.svg"
   inkscape:version="1.0 (4035a4f, 2020-05-01)"
   id="svg8"
   version="1.1"
   viewBox="0 0 210 297"
   height="297mm"
   width="210mm">
  <defs
     id="defs2">
    <filter
       id="filter1401"
       inkscape:label="Drop Shadow"
       style="color-interpolation-filters:sRGB;">
      <feFlood
         id="feFlood1391"
         result="flood"
         flood-color="rgb(0,0,0)"
         flood-opacity="0.498039" />
      <feComposite
         id="feComposite1393"
         result="composite1"
         operator="in"
         in2="SourceGraphic"
         in="flood" />
      <feGaussianBlur
         id="feGaussianBlur1395"
         result="blur"
         stdDeviation="8"
         in="composite1" />
      <feOffset
         id="feOffset1397"
         result="offset"
         dy="4"
         dx="0" />
      <feComposite
         id="feComposite1399"
         result="composite2"
         operator="over"
         in2="offset"
         in="SourceGraphic" />
    </filter>
  </defs>
  <sodipodi:namedview
     inkscape:window-maximized="1"
     inkscape:window-y="23"
     inkscape:window-x="1920"
     inkscape:window-height="1035"
     inkscape:window-width="1920"
     showgrid="false"
     inkscape:document-rotation="0"
     inkscape:current-layer="layer2"
     inkscape:document-units="mm"
     inkscape:cy="429.02855"
     inkscape:cx="278.2518"
     inkscape:zoom="0.7"
     inkscape:pageshadow="2"
     inkscape:pageopacity="0.0"
     borderopacity="1.0"
     bordercolor="#666666"
     pagecolor="#ffffff"
     id="base" />
  <metadata
     id="metadata5">
    <rdf:RDF>
      <cc:Work
         rdf:about="">
        <dc:format>image/svg+xml</dc:format>
        <dc:type
           rdf:resource="http://purl.org/dc/dcmitype/StillImage" />
        <dc:title></dc:title>
      </cc:Work>
    </rdf:RDF>
  </metadata>
  <g
     style="display:none"
     id="layer1"
     inkscape:groupmode="layer"
     inkscape:label="Layer 1" />
  <g
     style="display:none"
     inkscape:label="Layer 3"
     id="layer3"
     inkscape:groupmode="layer">
    <rect
       rx="3.1094363"
       y="-13.229166"
       x="-29.482143"
       height="312.20834"
       width="272.14285"
       id="rect1231"
       style="fill:#1a1a1a;stroke-width:0.264583" />
  </g>
  <g
     style="display:inline"
     inkscape:label="Layer 2"
     id="layer2"
     inkscape:groupmode="layer">
    <path
       transform="scale(0.26458333)"
       d="M 111.75195,88.572266 C 105.24124,88.572266 100,93.813502 100,100.32422 v 242.56445 a 32.857144,32.857144 0 0 1 1.42773,-0.0312 32.857144,32.857144 0 0 1 32.85743,32.85742 32.857144,32.857144 0 0 1 -32.85743,32.85743 A 32.857144,32.857144 0 0 1 100,408.53906 v 132.56641 c 0,6.51069 5.24124,11.75195 11.75195,11.75195 h 565.06641 c 6.51073,0 11.75391,-5.24126 11.75391,-11.75195 V 411.39648 a 32.857144,32.857144 0 0 1 -1.42969,0.0312 32.857144,32.857144 0 0 1 -32.85742,-32.85546 32.857144,32.857144 0 0 1 32.85742,-32.85743 32.857144,32.857144 0 0 1 1.42969,0.0312 V 100.32422 c 0,-6.510718 -5.24318,-11.751954 -11.75391,-11.751954 z"
       style="fill:#ffffff;fill-rule:evenodd;stroke-width:0.766681;filter:url(#filter1401)"
       id="rect403" />
    <rect
       rx="3.1094363"
       y="46.113098"
       x="51.404762"
       height="49.892857"
       width="100.1637"
       id="rect1451"
       style="fill:#ff00ff;stroke-width:0.264583" />
  </g>
</svg>
